<svg id="Layer_1" enable-background="new 0 0 512 512" height="512" viewBox="0 0 512 512" width="512" fill="#e9e9e9" xmlns="http://www.w3.org/2000/svg"><g><path d="m504.5 391.163c4.142 0 7.5-3.357 7.5-7.5v-206.796c0-14.583-11.864-26.446-26.446-26.446h-55.738v-99.707c0-4.143-3.358-7.5-7.5-7.5h-332.632c-4.142 0-7.5 3.357-7.5 7.5v99.706h-7.619c-4.142 0-7.5 3.357-7.5 7.5s3.358 7.5 7.5 7.5h410.988c6.312 0 11.446 5.135 11.446 11.446v74.979h-481.999v-74.979c0-6.312 5.135-11.446 11.446-11.446h12.904c4.142 0 7.5-3.357 7.5-7.5s-3.358-7.5-7.5-7.5h-12.904c-14.582 0-26.446 11.865-26.446 26.447v265.473c0 14.582 11.864 26.446 26.446 26.446h459.107c14.583 0 26.446-11.864 26.446-26.446v-24.153c0-4.143-3.358-7.5-7.5-7.5s-7.5 3.357-7.5 7.5v24.153c0 6.312-5.135 11.446-11.446 11.446h-173.024v-186.94h184.471v116.816c0 4.143 3.358 7.501 7.5 7.501zm-391.316-240.743h-16v-81.599l16 16zm270.632 0h-255.632v-61.206h255.632zm-260.025-76.206-16-16h296.418l-16 16zm291.025 76.206h-16v-65.599l16-16zm-215.345 303.366h-173.025c-6.312 0-11.446-5.135-11.446-11.446v-175.494h184.471zm98.058 0h-83.058v-52.47h83.058zm0-67.47h-83.058v-52h83.058zm0-67h-83.058v-52.47h83.058z"/><path d="m482.47 208.77c0-15.481-12.595-28.076-28.076-28.076s-28.076 12.595-28.076 28.076 12.595 28.076 28.076 28.076 28.076-12.595 28.076-28.076zm-41.153 0c0-7.21 5.866-13.076 13.076-13.076s13.076 5.866 13.076 13.076-5.866 13.076-13.076 13.076-13.076-5.866-13.076-13.076z"/><path d="m411.652 208.77c0-15.481-12.595-28.076-28.076-28.076s-28.076 12.595-28.076 28.076 12.595 28.076 28.076 28.076 28.076-12.595 28.076-28.076zm-41.152 0c0-7.21 5.866-13.076 13.076-13.076s13.076 5.866 13.076 13.076-5.866 13.076-13.076 13.076-13.076-5.866-13.076-13.076z"/><path d="m29.393 188.194v41.152c0 4.143 3.358 7.5 7.5 7.5s7.5-3.357 7.5-7.5v-41.152c0-4.143-3.358-7.5-7.5-7.5s-7.5 3.357-7.5 7.5z"/><path d="m66.893 236.846c4.142 0 7.5-3.357 7.5-7.5v-41.152c0-4.143-3.358-7.5-7.5-7.5s-7.5 3.357-7.5 7.5v41.152c0 4.143 3.358 7.5 7.5 7.5z"/><path d="m103.946 229.346v-41.152c0-4.143-3.358-7.5-7.5-7.5s-7.5 3.357-7.5 7.5v41.152c0 4.143 3.358 7.5 7.5 7.5s7.5-3.357 7.5-7.5z"/><path d="m307.318 221.846c-4.142 0-7.5 3.357-7.5 7.5s3.358 7.5 7.5 7.5h24.682c4.142 0 7.5-3.357 7.5-7.5v-41.152c0-4.143-3.358-7.5-7.5-7.5h-204.554c-4.142 0-7.5 3.357-7.5 7.5v41.152c0 4.143 3.358 7.5 7.5 7.5h145.367c4.142 0 7.5-3.357 7.5-7.5s-3.358-7.5-7.5-7.5h-137.867v-26.152h189.554v26.152z"/><path d="m107.283 433.292c39.977 0 72.5-32.523 72.5-72.5s-32.523-72.5-72.5-72.5-72.5 32.523-72.5 72.5 32.524 72.5 72.5 72.5zm0-130c31.706 0 57.5 25.794 57.5 57.5s-25.794 57.5-57.5 57.5-57.5-25.794-57.5-57.5 25.795-57.5 57.5-57.5z"/><path d="m107.408 385.67c13.718 0 24.878-11.16 24.878-24.879s-11.161-24.879-24.878-24.879c-13.718 0-24.879 11.16-24.879 24.879s11.16 24.879 24.879 24.879zm0-34.757c5.447 0 9.878 4.432 9.878 9.879s-4.432 9.879-9.878 9.879c-5.447 0-9.879-4.432-9.879-9.879s4.431-9.879 9.879-9.879z"/><path d="m332.217 360.792c0 39.977 32.523 72.5 72.5 72.5s72.5-32.523 72.5-72.5-32.523-72.5-72.5-72.5-72.5 32.523-72.5 72.5zm130 0c0 31.706-25.794 57.5-57.5 57.5s-57.5-25.794-57.5-57.5 25.794-57.5 57.5-57.5 57.5 25.793 57.5 57.5z"/><path d="m379.963 360.792c0 13.719 11.161 24.879 24.878 24.879 13.718 0 24.879-11.16 24.879-24.879s-11.161-24.879-24.879-24.879c-13.717 0-24.878 11.16-24.878 24.879zm24.878-9.879c5.447 0 9.879 4.432 9.879 9.879s-4.432 9.879-9.879 9.879-9.878-4.432-9.878-9.879 4.432-9.879 9.878-9.879z"/></g></svg>